HIERARCHY
ROOT Hips
{
  OFFSET 5.84602e-005 68.8428 3.50346
  CHANNELS 6 Xposition Yposition Zposition Zrotation Xrotation Yrotation
  JOINT Spine
  {
    OFFSET 0 8.597 -4.6522
    CHANNELS 3 Zrotation Xrotation Yrotation
    JOINT Spine1
    {
      OFFSET 0 7.8454 0.4098
      CHANNELS 3 Zrotation Xrotation Yrotation
      JOINT Spine2
      {
        OFFSET 0 9.7078 -2.1609
        CHANNELS 3 Zrotation Xrotation Yrotation
        JOINT Neck
        {
          OFFSET 0 21.8761 -0.4549
          CHANNELS 3 Zrotation Xrotation Yrotation
          JOINT Head
          {
            OFFSET 0 12.3537 3.3602
            CHANNELS 3 Zrotation Xrotation Yrotation
            End Site
            {
              OFFSET 0.0001 18.9506 0.5657
            }
          }
        }
        JOINT LeftShoulder
        {
          OFFSET 2.2086 21.1115 7.2329
          CHANNELS 3 Zrotation Xrotation Yrotation
          JOINT LeftArm
          {
            OFFSET 13.1193 3.0282 -4.8998
            CHANNELS 3 Zrotation Xrotation Yrotation
            JOINT LeftForeArm
            {
              OFFSET 27.4081 -0.0973053 -0.2375
              CHANNELS 3 Zrotation Xrotation Yrotation
              JOINT LeftHand
              {
                OFFSET 22.8641 0.0662994 -0.1369
                CHANNELS 3 Zrotation Xrotation Yrotation
                JOINT LeftHandIndex1
                {
                  OFFSET 8.8614 0.775009 2.4612
                  CHANNELS 3 Zrotation Xrotation Yrotation
                  JOINT LeftHandIndex2
                  {
                    OFFSET 3.3146 -0.808304 0.5841
                    CHANNELS 3 Zrotation Xrotation Yrotation
                    JOINT LeftHandIndex3
                    {
                      OFFSET 2.2628 -0.552002 0.3989
                      CHANNELS 3 Zrotation Xrotation Yrotation
                      End Site
                      {
                        OFFSET 1.6102 -0.4807 0.2612
                      }
                    }
                  }
                }
                JOINT LeftHandMiddle1
                {
                  OFFSET 8.9937 0.895004 0.2143
                  CHANNELS 3 Zrotation Xrotation Yrotation
                  JOINT LeftHandMiddle2
                  {
                    OFFSET 4.0984 0.0113983 -0.0242
                    CHANNELS 3 Zrotation Xrotation Yrotation
                    JOINT LeftHandMiddle3
                    {
                      OFFSET 2.2716 0.00689697 -0.0138001
                      CHANNELS 3 Zrotation Xrotation Yrotation
                      End Site
                      {
                        OFFSET 2.0404 -0.1441 0.0027
                      }
                    }
                  }
                }
                JOINT LeftHandRing1
                {
                  OFFSET 8.5234 0.597198 -2.0164
                  CHANNELS 3 Zrotation Xrotation Yrotation
                  JOINT LeftHandRing2
                  {
                    OFFSET 3.7188 -0.188293 -0.2328
                    CHANNELS 3 Zrotation Xrotation Yrotation
                    JOINT LeftHandRing3
                    {
                      OFFSET 2.1191 -0.106598 -0.1332
                      CHANNELS 3 Zrotation Xrotation Yrotation
                      End Site
                      {
                        OFFSET 1.8737 -0.2304 -0.0886
                      }
                    }
                  }
                }
                JOINT LeftHandPinky1
                {
                  OFFSET 7.9094 -0.601089 -3.4825
                  CHANNELS 3 Zrotation Xrotation Yrotation
                  JOINT LeftHandPinky2
                  {
                    OFFSET 2.2874 -0.477005 -0.6314
                    CHANNELS 3 Zrotation Xrotation Yrotation
                    JOINT LeftHandPinky3
                    {
                      OFFSET 1.6774 -0.349396 -0.4633
                      CHANNELS 3 Zrotation Xrotation Yrotation
                      End Site
                      {
                        OFFSET 1.4888 -0.4091 -0.3416
                      }
                    }
                  }
                }
                JOINT LeftHandThumb1
                {
                  OFFSET 1.833 -1.3875 1.3896
                  CHANNELS 3 Zrotation Xrotation Yrotation
                  JOINT LeftHandThumb2
                  {
                    OFFSET 3.4129 -1.121 2.5732
                    CHANNELS 3 Zrotation Xrotation Yrotation
                    JOINT LeftHandThumb3
                    {
                      OFFSET 2.2474 -0.804199 1.6192
                      CHANNELS 3 Zrotation Xrotation Yrotation
                      End Site
                      {
                        OFFSET 1.6527 -0.5689 1.1317
                      }
                    }
                  }
                }
              }
            }
          }
        }
        JOINT RightShoulder
        {
          OFFSET -2.2086 21.1115 7.2329
          CHANNELS 3 Zrotation Xrotation Yrotation
          JOINT RightArm
          {
            OFFSET -13.1216 3.0287 -4.9007
            CHANNELS 3 Zrotation Xrotation Yrotation
            JOINT RightForeArm
            {
              OFFSET -27.4081 -0.0973053 -0.2375
              CHANNELS 3 Zrotation Xrotation Yrotation
              JOINT RightHand
              {
                OFFSET -22.8641 0.0664063 -0.1369
                CHANNELS 3 Zrotation Xrotation Yrotation
                JOINT RightHandIndex1
                {
                  OFFSET -8.8614 0.774994 2.4612
                  CHANNELS 3 Zrotation Xrotation Yrotation
                  JOINT RightHandIndex2
                  {
                    OFFSET -3.3146 -0.808304 0.5841
                    CHANNELS 3 Zrotation Xrotation Yrotation
                    JOINT RightHandIndex3
                    {
                      OFFSET -2.2628 -0.552002 0.3989
                      CHANNELS 3 Zrotation Xrotation Yrotation
                      End Site
                      {
                        OFFSET -1.6102 -0.4807 0.2612
                      }
                    }
                  }
                }
                JOINT RightHandMiddle1
                {
                  OFFSET -8.9937 0.894989 0.2143
                  CHANNELS 3 Zrotation Xrotation Yrotation
                  JOINT RightHandMiddle2
                  {
                    OFFSET -4.0984 0.0113983 -0.0242
                    CHANNELS 3 Zrotation Xrotation Yrotation
                    JOINT RightHandMiddle3
                    {
                      OFFSET -2.2716 0.00691223 -0.0138001
                      CHANNELS 3 Zrotation Xrotation Yrotation
                      End Site
                      {
                        OFFSET -2.0404 -0.1441 0.0027
                      }
                    }
                  }
                }
                JOINT RightHandRing1
                {
                  OFFSET -8.5234 0.597198 -2.0164
                  CHANNELS 3 Zrotation Xrotation Yrotation
                  JOINT RightHandRing2
                  {
                    OFFSET -3.7188 -0.188309 -0.2328
                    CHANNELS 3 Zrotation Xrotation Yrotation
                    JOINT RightHandRing3
                    {
                      OFFSET -2.1191 -0.106598 -0.1332
                      CHANNELS 3 Zrotation Xrotation Yrotation
                      End Site
                      {
                        OFFSET -1.8737 -0.2304 -0.0886
                      }
                    }
                  }
                }
                JOINT RightHandPinky1
                {
                  OFFSET -7.9094 -0.601105 -3.4825
                  CHANNELS 3 Zrotation Xrotation Yrotation
                  JOINT RightHandPinky2
                  {
                    OFFSET -2.2874 -0.477005 -0.6314
                    CHANNELS 3 Zrotation Xrotation Yrotation
                    JOINT RightHandPinky3
                    {
                      OFFSET -1.6774 -0.349396 -0.4633
                      CHANNELS 3 Zrotation Xrotation Yrotation
                      End Site
                      {
                        OFFSET -1.4888 -0.4091 -0.3416
                      }
                    }
                  }
                }
                JOINT RightHandThumb1
                {
                  OFFSET -1.833 -1.38751 1.3896
                  CHANNELS 3 Zrotation Xrotation Yrotation
                  JOINT RightHandThumb2
                  {
                    OFFSET -3.41299 -1.12099 2.5732
                    CHANNELS 3 Zrotation Xrotation Yrotation
                    JOINT RightHandThumb3
                    {
                      OFFSET -2.24741 -0.804108 1.6192
                      CHANNELS 3 Zrotation Xrotation Yrotation
                      End Site
                      {
                        OFFSET -1.6527 -0.5689 1.1317
                      }
                    }
                  }
                }
              }
            }
          }
        }
      }
    }
  }
  JOINT RightUpLeg
  {
    OFFSET -9.1966 3.8861 -0.7581
    CHANNELS 3 Zrotation Xrotation Yrotation
    JOINT RightLeg
    {
      OFFSET -0.7359 -41.0265 0
      CHANNELS 3 Zrotation Xrotation Yrotation
      JOINT RightFoot
      {
        OFFSET 0 -40.2855 0
        CHANNELS 3 Zrotation Xrotation Yrotation
        JOINT RightToeBase
        {
          OFFSET 0 -5.6122 11.7359
          CHANNELS 3 Zrotation Xrotation Yrotation
          End Site
          {
            OFFSET 0 0 7.8731
          }
        }
      }
    }
  }
  JOINT LeftUpLeg
  {
    OFFSET 9.1965 3.8864 -0.7581
    CHANNELS 3 Zrotation Xrotation Yrotation
    JOINT LeftLeg
    {
      OFFSET 0.7359 -41.0268 0
      CHANNELS 3 Zrotation Xrotation Yrotation
      JOINT LeftFoot
      {
        OFFSET 0 -40.2855 0
        CHANNELS 3 Zrotation Xrotation Yrotation
        JOINT LeftToeBase
        {
          OFFSET 0 -5.6122 11.7359
          CHANNELS 3 Zrotation Xrotation Yrotation
          End Site
          {
            OFFSET 0 0 7.8731
          }
        }
      }
    }
  }
}
MOTION
Frames:	7
Frame Time:	0.0333333
0.000223569 69.4008 46.2687 -180 70.0004 -180 -0.232083 12.1415 -0.256559 -0.421797 24.2838 -0.478171 -0.421797 24.2838 -0.478171 1.34241e-006 -5.69605 -1.20995e-006 9.9808e-008 19.0327 -6.56243e-007 41.3891 -5.58931 -5.98666 27.4498 -57.9499 -22.9787 12.7346 -2.07205 -3.22003 -3.69205 -0.556664 -0.0377913 1.59028e-015 0 -1.19271e-015 2.38542e-015 0 -1.98785e-016 7.95139e-016 3.18055e-015 -3.97569e-016 1.59028e-015 0 -1.19271e-015 -0.0147183 -9.32371e-005 -3.40059e-007 7.95139e-016 0 -1.59028e-015 1.59028e-015 0 -1.19271e-015 -0.0187341 -0.00117494 5.64537e-005 2.38542e-015 3.18055e-015 5.96354e-016 1.59028e-015 0 -1.19271e-015 -0.0121554 -0.00321165 0.000669882 7.95139e-016 9.54166e-015 3.97569e-016 1.59028e-015 0 -1.19271e-015 2.38542e-015 0 -1.98785e-016 7.95139e-016 3.18055e-015 -3.97569e-016 -41.5774 -5.54694 5.98301 -27.5093 -57.9917 22.9249 -12.7319 -2.04648 3.21235 3.76348 -0.791236 -0.280172 7.95139e-016 0 1.39149e-015 7.95139e-016 0 1.78906e-015 -8.82781e-032 3.18055e-015 1.59028e-015 7.95139e-016 0 1.39149e-015 0.0150612 -8.77166e-005 -2.09971e-006 3.97569e-015 -2.22639e-014 -8.34896e-015 7.95139e-016 0 1.39149e-015 0.0189941 -0.00119326 -6.11095e-005 6.92488e-007 -2.48177e-006 -7.48e-007 7.95139e-016 0 1.39149e-015 0.0121749 -0.00322122 -0.000671132 -7.95139e-016 -3.18055e-015 -1.98785e-015 7.95139e-016 0 1.39149e-015 7.95139e-016 0 1.78906e-015 -8.82781e-032 3.18055e-015 1.59028e-015 -171.264 -70.9533 -168.265 4.07411 3.00262 -1.66654 -4.98835 37.0548 -4.91149 1.16746e-007 -3.19067e-006 -1.79896e-007 171.508 -70.9476 168.482 -3.96626 3.03236 1.60104 4.86176 37.0666 4.97825 -1.1555e-007 -3.19061e-006 1.78588e-007 
0.000223569 69.4008 46.3227 -180 70.0004 -180 -0.231716 12.1816 -0.257566 -0.420692 24.364 -0.480269 -0.420692 24.364 -0.480269 4.13096e-006 -5.43565 2.62608e-007 5.47655e-008 19.4735 -5.2669e-007 41.4641 -5.67173 -5.89133 27.4497 -57.9499 -22.9787 12.7346 -2.07206 -3.22003 -3.69202 -0.556655 -0.0378194 -5.96886e-009 3.88632e-006 -3.58445e-007 1.40577e-006 -7.08375e-006 -6.3788e-006 -7.10922e-007 1.8036e-006 3.70384e-007 -5.96886e-009 3.88632e-006 -3.58445e-007 -0.014646 -9.57334e-005 7.74348e-006 -6.3325e-009 3.88636e-006 -3.57948e-007 -5.96886e-009 3.88632e-006 -3.58445e-007 -0.0187587 -0.00117924 6.01172e-005 -6.43621e-009 3.88634e-006 -3.57808e-007 -5.96886e-009 3.88632e-006 -3.58445e-007 -0.0123207 -0.00326459 0.000683167 -7.09759e-007 1.80386e-006 3.70534e-007 -5.96886e-009 3.88632e-006 -3.58445e-007 1.40577e-006 -7.08375e-006 -6.3788e-006 -7.10922e-007 1.8036e-006 3.70384e-007 -41.6604 -5.62822 5.88846 -27.5093 -57.9917 22.9249 -12.7319 -2.04648 3.21236 3.76348 -0.791247 -0.280171 -1.10348e-031 3.18055e-015 1.98785e-015 -7.72434e-032 3.18055e-015 1.39149e-015 -7.95139e-016 0 5.96354e-016 -1.10348e-031 3.18055e-015 1.98785e-015 0.0150198 -8.87162e-005 8.72548e-006 -7.95139e-016 6.36111e-015 -1.59028e-015 -1.10348e-031 3.18055e-015 1.98785e-015 0.0189805 -0.00119468 -5.98841e-005 1.59028e-015 0 7.95139e-016 -1.10348e-031 3.18055e-015 1.98785e-015 0.012305 -0.00325831 -0.000679368 -0 0 9.93923e-016 -1.10348e-031 3.18055e-015 1.98785e-015 -7.72434e-032 3.18055e-015 1.39149e-015 -7.95139e-016 0 5.96354e-016 -171.264 -70.9533 -168.265 4.07411 3.00262 -1.66654 -4.98835 37.0548 -4.91149 1.16746e-007 -3.19067e-006 -1.79896e-007 171.508 -70.9476 168.482 -3.96626 3.03236 1.60104 4.86176 37.0666 4.97825 -1.1555e-007 -3.19061e-006 1.78588e-007 
0.000223569 69.4008 46.3768 -180 70.0004 -180 -0.231345 12.2216 -0.258579 -0.419576 24.4441 -0.482381 -0.419576 24.4442 -0.482381 3.66633e-007 -5.17537 6.01832e-008 -6.30077e-008 19.9137 3.80226e-007 41.5393 -5.75403 -5.79586 27.4497 -57.9499 -22.9787 12.7346 -2.07204 -3.22004 -3.69202 -0.556664 -0.0378204 -6.97315e-007 -2.08467e-006 7.37993e-007 6.97315e-007 2.08467e-006 -7.37993e-007 -6.97315e-007 -2.08467e-006 7.37993e-007 -6.97315e-007 -2.08467e-006 7.37993e-007 -0.0145638 -9.18586e-005 7.98081e-006 -6.95604e-007 -2.08475e-006 7.37727e-007 -6.97315e-007 -2.08467e-006 7.37993e-007 -0.0188619 -0.00117461 6.04803e-005 0 1.27222e-014 -0 -6.97315e-007 -2.08467e-006 7.37993e-007 -0.0122646 -0.00324506 0.000671673 1.59028e-015 0 -9.93923e-016 -6.97315e-007 -2.08467e-006 7.37993e-007 6.97315e-007 2.08467e-006 -7.37993e-007 -6.97315e-007 -2.08467e-006 7.37993e-007 -41.7436 -5.70939 5.79376 -27.5093 -57.9917 22.9249 -12.7319 -2.04647 3.21236 3.76348 -0.791239 -0.280176 -7.95139e-016 0 -1.98785e-016 7.95139e-016 -6.36111e-015 -3.97569e-016 -7.95139e-016 -3.18055e-015 -3.97569e-016 -7.95139e-016 0 -1.98785e-016 0.0149848 -9.1619e-005 -2.48879e-006 6.76937e-007 -2.48715e-006 -7.67592e-007 -7.95139e-016 0 -1.98785e-016 0.0189946 -0.00119208 -5.96861e-005 -1.59028e-015 6.36111e-015 -0 -7.95139e-016 0 -1.98785e-016 0.0122662 -0.00324239 -0.000666583 6.77248e-007 -2.48676e-006 -7.67592e-007 -7.95139e-016 0 -1.98785e-016 7.95139e-016 -6.36111e-015 -3.97569e-016 -7.95139e-016 -3.18055e-015 -3.97569e-016 -171.27 -70.9434 -168.271 4.07418 3.02301 -1.66731 -4.98765 37.0445 -4.91222 1.16746e-007 -3.19067e-006 -1.79896e-007 171.508 -70.9476 168.482 -3.96627 3.03236 1.60104 4.86176 37.0666 4.97826 -9.47529e-007 5.12111e-008 9.9071e-008 
0.000223569 69.4008 46.4308 -180 70.0004 -180 -0.23097 12.2617 -0.259597 -0.41845 24.5243 -0.484508 -0.41845 24.5243 -0.484507 1.81617e-007 -4.91521 -5.03195e-006 -5.65486e-008 20.3533 -2.63553e-008 41.6146 -5.8362 -5.70028 27.4497 -57.9499 -22.9787 12.7347 -2.07205 -3.22003 -3.69202 -0.556655 -0.0378346 -3.86217e-031 -2.22639e-014 -9.93923e-016 1.43734e-008 -3.88708e-006 3.59211e-007 7.95139e-016 -9.54166e-015 -1.98785e-016 -3.86217e-031 -2.22639e-014 -9.93923e-016 -0.0146729 -8.82749e-005 -1.69971e-006 7.95139e-016 -1.59028e-014 -7.95139e-016 -3.86217e-031 -2.22639e-014 -9.93923e-016 -0.0187718 -0.00117411 5.78576e-005 1.59028e-015 0 -7.95139e-016 -3.86217e-031 -2.22639e-014 -9.93923e-016 -0.0121836 -0.00322858 0.000669359 -6.88235e-007 -2.08628e-006 7.46888e-007 -3.86217e-031 -2.22639e-014 -9.93923e-016 1.43734e-008 -3.88708e-006 3.59211e-007 7.95139e-016 -9.54166e-015 -1.98785e-016 -41.8269 -5.79041 5.69894 -27.5093 -57.9917 22.9249 -12.7319 -2.04647 3.21235 3.76349 -0.791238 -0.280189 -0 0 1.98785e-016 2.72566e-006 -3.6209e-007 3.97048e-006 7.95139e-016 -3.18055e-015 -3.18055e-015 -0 0 1.98785e-016 0.0150398 -9.2134e-005 9.66677e-006 -2.38542e-015 -6.36111e-015 -2.18663e-015 -0 0 1.98785e-016 0.0190044 -0.00119617 -5.7146e-005 7.95139e-016 -3.18055e-015 3.97569e-016 -0 0 1.98785e-016 0.0123425 -0.00327281 -0.000678478 7.95139e-016 -3.18055e-015 -3.77691e-015 -0 0 1.98785e-016 2.72566e-006 -3.6209e-007 3.97048e-006 7.95139e-016 -3.18055e-015 -3.18055e-015 -171.27 -70.9434 -168.271 4.07418 3.02301 -1.66731 -4.98765 37.0445 -4.91222 1.16746e-007 -3.19067e-006 -1.79896e-007 171.508 -70.9476 168.482 -3.96627 3.03236 1.60104 4.86176 37.0666 4.97826 -9.47529e-007 5.12111e-008 9.9071e-008 
0.000223569 69.4008 46.4848 -180 70.0004 -180 -0.230592 12.3018 -0.260622 -0.417312 24.6045 -0.486649 -0.417312 24.6045 -0.48665 3.53244e-006 -4.6552 4.8947e-006 -9.22127e-008 20.7923 2.82136e-007 41.6901 -5.91825 -5.60457 27.4497 -57.9499 -22.9787 12.7346 -2.07205 -3.22003 -3.69203 -0.556657 -0.0378429 7.95139e-016 0 9.93923e-016 7.95139e-016 -3.18055e-015 5.96354e-016 7.95139e-016 -3.18055e-015 1.98785e-015 7.95139e-016 0 9.93923e-016 -0.0146743 -8.98365e-005 -5.69989e-006 -7.95139e-016 6.36111e-015 -5.96354e-016 7.95139e-016 0 9.93923e-016 -0.0187922 -0.00118136 5.87738e-005 -7.95139e-016 3.18055e-015 -2.18663e-015 7.95139e-016 0 9.93923e-016 -0.012269 -0.00324941 0.000678183 -7.95139e-016 3.18055e-015 2.18663e-015 7.95139e-016 0 9.93923e-016 7.95139e-016 -3.18055e-015 5.96354e-016 7.95139e-016 -3.18055e-015 1.98785e-015 -41.9104 -5.87129 5.60399 -27.5093 -57.9917 22.9249 -12.7319 -2.04646 3.21236 3.7635 -0.791244 -0.280189 -2.38542e-015 3.18055e-015 3.97569e-016 2.91456e-006 -4.23479e-006 -2.26874e-006 6.62677e-007 -2.49221e-006 -7.87449e-007 -2.38542e-015 3.18055e-015 3.97569e-016 0.0149964 -9.40228e-005 -7.61301e-006 -1.59028e-015 6.36111e-015 1.19271e-015 -2.38542e-015 3.18055e-015 3.97569e-016 0.0191143 -0.00119473 -6.10751e-005 6.60436e-007 -2.49221e-006 -7.87034e-007 -2.38542e-015 3.18055e-015 3.97569e-016 0.0124025 -0.00328362 -0.000686136 -1.59028e-015 -6.36111e-015 -5.96354e-016 -2.38542e-015 3.18055e-015 3.97569e-016 2.91456e-006 -4.23479e-006 -2.26874e-006 6.62677e-007 -2.49221e-006 -7.87449e-007 -171.264 -70.9533 -168.265 4.07411 3.00262 -1.66654 -4.98835 37.0548 -4.91149 1.16746e-007 -3.19067e-006 -1.79896e-007 171.508 -70.9476 168.482 -3.96627 3.03235 1.60104 4.86176 37.0666 4.97825 0 0 -0 
0.000223569 69.4008 46.5388 -180 70.0004 -180 -0.230211 12.3419 -0.261652 -0.416164 24.6846 -0.488806 -0.416164 24.6846 -0.488806 2.72859e-007 -4.39532 5.47768e-007 3.06693e-008 21.2306 4.36229e-009 41.7657 -6.00017 -5.50874 27.4497 -57.9499 -22.9787 12.7346 -2.07206 -3.22003 -3.69202 -0.556639 -0.0378464 7.95139e-016 3.18055e-015 -1.39149e-015 0 3.18055e-015 -0 -7.95139e-016 6.36111e-015 -3.97569e-016 7.95139e-016 3.18055e-015 -1.39149e-015 -0.0145829 -8.95887e-005 -5.68209e-006 -7.95139e-016 0 9.93923e-016 7.95139e-016 3.18055e-015 -1.39149e-015 -0.0186923 -0.00117502 6.04679e-005 -1.59028e-015 3.18055e-015 -1.78906e-015 7.95139e-016 3.18055e-015 -1.39149e-015 -0.0121591 -0.00321889 0.000674473 7.95139e-016 -3.18055e-015 2.18663e-015 7.95139e-016 3.18055e-015 -1.39149e-015 0 3.18055e-015 -0 -7.95139e-016 6.36111e-015 -3.97569e-016 -41.994 -5.95203 5.5089 -27.5093 -57.9917 22.9249 -12.7319 -2.04647 3.21236 3.76348 -0.791223 -0.280176 -7.95139e-016 -3.18055e-015 -2.5842e-015 7.95139e-016 -6.36111e-015 -3.37934e-015 -1.59028e-015 -9.54166e-015 -2.78299e-015 -7.95139e-016 -3.18055e-015 -2.5842e-015 0.0149519 -9.47092e-005 -9.3725e-006 7.95139e-016 0 -5.96354e-016 -7.95139e-016 -3.18055e-015 -2.5842e-015 0.0189308 -0.00118671 -6.0062e-005 2.92059e-006 -4.2369e-006 -2.25351e-006 -7.95139e-016 -3.18055e-015 -2.5842e-015 0.0122571 -0.00324529 -0.000677592 7.95139e-016 -3.18055e-015 1.98785e-016 -7.95139e-016 -3.18055e-015 -2.5842e-015 7.95139e-016 -6.36111e-015 -3.37934e-015 -1.59028e-015 -9.54166e-015 -2.78299e-015 -171.264 -70.9533 -168.265 4.07411 3.00262 -1.66654 -4.98835 37.0548 -4.91149 1.16746e-007 -3.19067e-006 -1.79896e-007 171.508 -70.9476 168.482 -3.96626 3.03236 1.60104 4.86176 37.0666 4.97825 -1.1555e-007 -3.19061e-006 1.78588e-007 
0.000223569 69.4008 46.5929 -180 70.0004 -180 -0.229825 12.3819 -0.262687 -0.415004 24.7647 -0.490976 -0.415005 24.7647 -0.490976 -3.33097e-007 -4.13555 2.4902e-006 7.94922e-009 21.6682 -1.56945e-007 41.8415 -6.08195 -5.41281 27.4497 -57.9499 -22.9787 12.7346 -2.07206 -3.22003 -3.69205 -0.556653 -0.0378536 1.59028e-015 3.18055e-015 -0 1.59028e-015 0 -1.19271e-015 2.38542e-015 0 -9.93923e-016 1.59028e-015 3.18055e-015 -0 -0.0146905 -8.31537e-005 1.33307e-006 -7.95139e-016 -3.18055e-015 1.98785e-015 1.59028e-015 3.18055e-015 -0 -0.0188034 -0.00117562 5.21642e-005 7.95139e-016 9.54166e-015 2.18663e-015 1.59028e-015 3.18055e-015 -0 -0.0122699 -0.00324847 0.000672754 1.59028e-015 -9.54166e-015 -1.98785e-016 1.59028e-015 3.18055e-015 -0 1.59028e-015 0 -1.19271e-015 2.38542e-015 0 -9.93923e-016 -42.0778 -6.03262 5.4137 -27.5093 -57.9917 22.9249 -12.7319 -2.04648 3.21235 3.76348 -0.791214 -0.280165 7.95139e-016 0 -7.95139e-016 1.59028e-015 0 -0 0 0 -7.95139e-016 7.95139e-016 0 -7.95139e-016 0.0149865 -8.8914e-005 -3.19534e-007 -1.59028e-015 -6.36111e-015 -2.38542e-015 7.95139e-016 0 -7.95139e-016 0.019037 -0.00119456 -6.24484e-005 -1.59028e-015 6.36111e-015 -1.98785e-016 7.95139e-016 0 -7.95139e-016 0.0123253 -0.00326518 -0.000674118 -7.95139e-016 -3.18055e-015 -1.39149e-015 7.95139e-016 0 -7.95139e-016 1.59028e-015 0 -0 0 0 -7.95139e-016 -171.264 -70.9533 -168.265 4.07411 3.00262 -1.66654 -4.98835 37.0548 -4.91149 1.16746e-007 -3.19067e-006 -1.79896e-007 171.508 -70.9476 168.482 -3.96626 3.03236 1.60104 4.86176 37.0666 4.97825 -1.1555e-007 -3.19061e-006 1.78588e-007 
